M48
; DRILL file {KiCad 7.0.5} date Sun Mar 24 23:21:58 2024
; FORMAT={-:-/ absolute / metric / decimal}
; #@! TF.CreationDate,2024-03-24T23:21:58+04:00
; #@! TF.GenerationSoftware,Kicad,Pcbnew,7.0.5
; #@! TF.FileFunction,Plated,1,2,PTH
FMAT,2
METRIC
; #@! TA.AperFunction,Plated,PTH,ComponentDrill
T1C0.750
; #@! TA.AperFunction,Plated,PTH,ComponentDrill
T2C0.800
; #@! TA.AperFunction,Plated,PTH,ComponentDrill
T3C0.900
; #@! TA.AperFunction,Plated,PTH,ComponentDrill
T4C1.000
; #@! TA.AperFunction,Plated,PTH,ComponentDrill
T5C1.070
; #@! TA.AperFunction,Plated,PTH,ComponentDrill
T6C1.100
; #@! TA.AperFunction,Plated,PTH,ComponentDrill
T7C1.200
; #@! TA.AperFunction,Plated,PTH,ComponentDrill
T8C1.500
; #@! TA.AperFunction,Plated,PTH,ComponentDrill
T9C1.520
%
G90
G05
T1
X99.06Y69.85
X100.33Y69.85
X101.6Y69.85
T2
X76.2Y113.03
X76.2Y115.57
X76.2Y118.11
X76.2Y120.65
X76.2Y123.19
X76.2Y125.73
X76.2Y128.27
X76.2Y130.81
X76.2Y133.35
X83.82Y113.03
X83.82Y115.57
X83.82Y118.11
X83.82Y120.65
X83.82Y123.19
X83.82Y125.73
X83.82Y128.27
X83.82Y130.81
X83.82Y133.35
X88.9Y146.05
X88.9Y148.59
X88.9Y151.13
X88.9Y153.67
X96.52Y146.05
X96.52Y148.59
X96.52Y151.13
X96.52Y153.67
T3
X57.15Y177.8
X59.69Y177.8
X101.6Y165.1
X109.2Y165.1
T4
X50.8Y127.0
X50.8Y133.35
X57.15Y143.51
X57.15Y146.05
X57.15Y148.59
X58.3Y127.0
X58.3Y133.35
X63.5Y101.6
X63.5Y107.95
X63.5Y114.3
X63.5Y120.65
X63.5Y127.0
X63.5Y133.35
X68.7Y139.7
X68.7Y152.4
X71.0Y101.6
X71.0Y107.95
X71.0Y114.3
X71.0Y120.65
X71.0Y127.0
X71.0Y133.35
X75.05Y107.95
X76.2Y101.6
X76.2Y139.7
X76.2Y152.4
X81.4Y139.7
X82.55Y107.95
X82.55Y152.4
X82.55Y159.9
X87.75Y158.75
X87.75Y177.8
X88.9Y101.6
X88.9Y106.8
X88.9Y114.3
X88.9Y120.65
X88.9Y127.0
X88.9Y134.5
X88.9Y139.7
X95.25Y95.25
X95.25Y101.6
X95.25Y107.95
X95.25Y114.3
X95.25Y133.35
X95.25Y158.75
X95.25Y177.8
X96.4Y120.65
X100.45Y177.8
X101.6Y120.65
X102.75Y95.25
X102.75Y101.6
X102.75Y107.95
X102.75Y114.3
X102.75Y133.35
X107.95Y177.8
X109.1Y120.65
X114.3Y88.9
X114.3Y91.44
X114.3Y93.98
T5
X89.975Y88.9
X100.525Y88.9
T6
X77.47Y171.45
X80.01Y171.45
X82.55Y171.45
T7
X50.8Y97.95
X50.8Y117.95
X57.15Y157.6
X57.15Y165.1
X63.5Y146.05
X67.31Y88.9
X67.31Y95.25
X69.85Y165.1
X69.85Y180.34
X76.2Y69.85
X76.2Y85.09
X78.74Y146.05
X82.55Y69.85
X82.55Y85.09
X82.55Y88.9
X82.55Y95.25
X88.9Y76.2
X88.9Y82.55
X99.06Y127.0
X101.6Y146.05
X104.14Y76.2
X104.14Y82.55
X109.1Y146.05
X114.3Y127.0
T8
X114.3Y107.95
T9
X69.85Y190.5
X74.93Y190.5
T0
M30
